# xmcd
# 
# Track frame offsets:
#     150
#     14855
#     31427
#     49660
#     70922
#     92485
#     111265
#     121472
#     135582
#     155985
#     170585
# 
# Disc length: 2550
# 
# Revision: 1
# Processed by: cddbd v1.5.2PL0 Copyright (c) Steve Scherf et al.
# Submitted via: fre:ac v1.0.27
# 
DISCID=9d09f40b
DTITLE=Narada Collection Series - Narada Chrismas collection volume 1
DYEAR=1988
DGENRE=New Age
TTITLE0=Joy to the World - Bruce Mitchell
TTITLE1=Ukranian Carol - Spencer Brewer
TTITLE2=What Child is this - Peter Buffett
TTITLE3=It came upon a midnight clear -Eric Tingstad and Nancy Rumbel
TTITLE4=The Man from Ceasaria - Friedemann
TTITLE5=O holy night - David Lanz and Paul Speer
TTITLE6=Patapan-Noël Nouvelet - Nancy Rumbel
TTITLE7=Return of the Magi - William Ellwood
TTITLE8=God rest ye merry Gentlemen - Johan Doan
TTITLE9=Away in a Manger - David Darling
TTITLE10=I saw three ships -  David Arkenstone
EXTD=YEAR: 1988
EXTT0=
EXTT1=
EXTT2=
EXTT3=
EXTT4=
EXTT5=
EXTT6=
EXTT7=
EXTT8=
EXTT9=
EXTT10=
PLAYORDER=
